<svg width="154" height="149" viewBox="0 0 154 149" fill="none" xmlns="http://www.w3.org/2000/svg">
    <path d="M35.8349 131.753C65.4243 131.753 85.7438 146.583 100.002 146.583C114.259 146.583 144.204 138.653 144.204 75.1912C144.204 11.7296 103.92 2.41296 88.2377 2.41296C14.8011 2.41296 -16.5679 131.753 35.8349 131.753V131.753Z" fill="#EFEFEF"/>
    <path d="M110.822 8.77444L113.846 5.84781L119.896 11.7011L116.871 14.6277L110.822 8.77444Z" fill="#E6495A"/>
    <path d="M128.212 25.6073L131.237 22.6807L137.287 28.5339L134.262 31.4606L128.212 25.6073Z" fill="#E6495A"/>
    <path d="M127.443 11.6861L133.493 5.83279L136.518 8.75943L130.468 14.6127L127.443 11.6861Z" fill="#E6495A"/>
    <path d="M116.569 116.924H37.4306C32.7036 116.924 28.875 113.219 28.875 108.646V46.5625H125.125V108.646C125.125 113.219 121.296 116.924 116.569 116.924Z" fill="#F3F3F1"/>
    <path d="M125.125 46.5625H28.875V40.3542C28.875 35.7807 32.7036 32.0764 37.4306 32.0764H116.569C121.296 32.0764 125.125 35.7807 125.125 40.3542V46.5625Z" fill="#E6495A"/>
    <path d="M55.6111 75.5347C58.5643 75.5347 60.9583 73.2184 60.9583 70.3611C60.9583 67.5038 58.5643 65.1875 55.6111 65.1875C52.6579 65.1875 50.2639 67.5038 50.2639 70.3611C50.2639 73.2184 52.6579 75.5347 55.6111 75.5347Z" fill="#E6495A"/>
    <path d="M98.3889 75.5347C101.342 75.5347 103.736 73.2184 103.736 70.3611C103.736 67.5038 101.342 65.1875 98.3889 65.1875C95.4357 65.1875 93.0417 67.5038 93.0417 70.3611C93.0417 73.2184 95.4357 75.5347 98.3889 75.5347Z" fill="#E6495A"/>
    <path d="M47.0556 32.0764H37.4306C32.7036 32.0764 28.875 35.7807 28.875 40.3542V46.5625H38.5V40.3542C38.5 35.7807 42.3286 32.0764 47.0556 32.0764Z" fill="#E6495A"/>
    <path d="M59.8889 70.3611C59.8889 69.5747 60.0985 68.8504 60.4236 68.1841C59.568 66.425 57.75 65.1875 55.6111 65.1875C52.6594 65.1875 50.2639 67.5053 50.2639 70.3611C50.2639 73.217 52.6594 75.5347 55.6111 75.5347C57.75 75.5347 59.568 74.2972 60.4236 72.5382C60.0985 71.8718 59.8889 71.1475 59.8889 70.3611Z" fill="white"/>
    <path d="M102.667 70.3611C102.667 69.5747 102.876 68.8504 103.201 68.1841C102.346 66.425 100.528 65.1875 98.3889 65.1875C95.4372 65.1875 93.0417 67.5053 93.0417 70.3611C93.0417 73.217 95.4372 75.5347 98.3889 75.5347C100.528 75.5347 102.346 74.2972 103.201 72.5382C102.876 71.8718 102.667 71.1475 102.667 70.3611Z" fill="white"/>
    <path d="M38.5 108.646V46.5625H28.875V108.646C28.875 113.219 32.7036 116.924 37.4306 116.924H47.0556C42.3286 116.924 38.5 113.219 38.5 108.646Z" fill="#D5DBE1"/>
    <path d="M55.6111 78.6389C50.8927 78.6389 47.0555 74.9263 47.0555 70.3611C47.0555 65.7959 50.8927 62.0833 55.6111 62.0833C60.3295 62.0833 64.1667 65.7959 64.1667 70.3611C64.1667 74.9263 60.3295 78.6389 55.6111 78.6389ZM55.6111 68.2917C54.4304 68.2917 53.4722 69.2229 53.4722 70.3611C53.4722 71.4993 54.4304 72.4306 55.6111 72.4306C56.7918 72.4306 57.75 71.4993 57.75 70.3611C57.75 69.2229 56.7918 68.2917 55.6111 68.2917Z" fill="black"/>
    <path d="M98.3889 78.6389C93.6705 78.6389 89.8333 74.9263 89.8333 70.3611C89.8333 65.7959 93.6705 62.0833 98.3889 62.0833C103.107 62.0833 106.944 65.7959 106.944 70.3611C106.944 74.9263 103.107 78.6389 98.3889 78.6389ZM98.3889 68.2917C97.2082 68.2917 96.25 69.2229 96.25 70.3611C96.25 71.4993 97.2082 72.4306 98.3889 72.4306C99.5695 72.4306 100.528 71.4993 100.528 70.3611C100.528 69.2229 99.5695 68.2917 98.3889 68.2917Z" fill="black"/>
    <path d="M99.6851 107.864L97.4179 105.67C86.1587 94.7806 67.8413 94.7806 56.5822 105.67L54.315 107.864L49.7762 103.472L52.0435 101.279C65.8051 87.9638 88.1907 87.9638 101.952 101.279L104.22 103.472L99.6851 107.864Z" fill="black"/>
    <path d="M116.569 120.028H37.4306C30.9412 120.028 25.6667 114.925 25.6667 108.646V40.3542C25.6667 34.0755 30.9412 28.9722 37.4306 28.9722H116.569C123.059 28.9722 128.333 34.0755 128.333 40.3542V108.646C128.333 114.925 123.059 120.028 116.569 120.028ZM37.4306 35.1806C34.4832 35.1806 32.0834 37.5025 32.0834 40.3542V108.646C32.0834 111.498 34.4832 113.819 37.4306 113.819H116.569C119.517 113.819 121.917 111.498 121.917 108.646V40.3542C121.917 37.5025 119.517 35.1806 116.569 35.1806H37.4306Z" fill="black"/>
    <path d="M28.875 43.4583H125.125V49.6667H28.875V43.4583Z" fill="black"/>
    <path d="M8.55554 113.819H145.444V120.028H8.55554V113.819Z" fill="black"/>
    </svg>
    